# xmcd CD database file
#
# Track frame offsets:
#	150
#	14080
#	30252
#	44731
#	59129
#	72757
#	86709
#	101262
#	116030
#	130266
#	144487
#	158212
#	171840
#	186370
#	202058
#	216301
#
# Disc length: 3064 seconds
#
# Revision: 0
# Processed by: cddbd v1.5.1PL2 Copyright (c) Steve Scherf et al.
# Submitted via: CDex 1.51
#
DISCID=f50bf610
DTITLE=Bessie Smith - Chicago Bound Blues
DYEAR=2005
DGENRE=Blues
TTITLE0=Gulf Coast Blues
TTITLE1=Beale Street Mam
TTITLE2=Frosty Morning Blues
TTITLE3=Mean Old Bedbug Blues
TTITLE4=Sweet Mistreater
TTITLE5=Woman's Trouble Blues
TTITLE6=Love Me Daddy Blues
TTITLE7=Follow The Deal On Down
TTITLE8=Sinful Blues
TTITLE9=The St. Louis Blues
TTITLE10=Reckless Blues
TTITLE11=Sobbin' Hearted Blues
TTITLE12=Cold In Hand Blues
TTITLE13=You've Been A Good Old Wagon
TTITLE14=He's Gone Blues
TTITLE15=The Yellow Dog Blues
EXTD=YEAR: 2005
EXTT0=
EXTT1=
EXTT2=
EXTT3=
EXTT4=
EXTT5=
EXTT6=
EXTT7=
EXTT8=
EXTT9=
EXTT10=
EXTT11=
EXTT12=
EXTT13=
EXTT14=
EXTT15=
PLAYORDER=
